<?xml version="1.0" encoding="UTF-8"?>
<svg id="Layer_2" data-name="Layer 2" xmlns="http://www.w3.org/2000/svg" viewBox="0 0 800 720.46">
  <defs>
    <style>
      .cls-1 {
        fill: #6466ed;
      }
    </style>
  </defs>
  <g id="_ÎÓÈ_1" data-name="—ÎÓÈ_1">
    <path class="cls-1" d="m511.25,396.12l169.21-26.79c-10.56-23.36-33.82-38.41-59.5-38.41h-67.99l-41.73,65.2Zm-130.64,98.83c7.34,11.47,24.11,11.47,31.45,0l138.92-217.08c17.31-27.85,27.31-60.71,27.31-95.91C578.3,81.38,496.69-.14,396.08,0c-100.77.14-181.7,81.2-181.7,181.96,0,35.19,10,68.05,27.3,95.89,0,0,138.93,217.1,138.93,217.1Zm15.73-432.92c66.23,0,119.93,53.69,119.93,119.93s-53.69,119.93-119.93,119.93-119.93-53.69-119.93-119.93,53.69-119.93,119.93-119.93Zm142.25,472.82l197.9-37.94-43.63-99.41c-1.16.51-2.4.9-3.71,1.1l-195.41,30.93,44.85,105.31Zm-299.73-201.08c-.12-.97-.13-1.92-.07-2.85h-61.24c-25.92,0-49.38,15.33-59.8,39.06L4.09,628.91c-1.31,2.99-2.37,6-3.21,9.03l269.42-51.65-31.44-252.52Zm233.57,123.02l-34.87,54.48c-9.04,14.13-24.45,22.56-41.22,22.56-16.77,0-32.18-8.43-41.23-22.56l-79.02-123.48,24,192.78,208.07-39.89-35.73-83.9Zm321.99,172.13l-45.62-103.93c-1.02.45-2.09.8-3.23,1.01l-213.11,40.85s-.06.01-.1.02l-228.52,43.81,13.44,107.91c.08.63.1,1.25.1,1.87h417.24c47.13,0,78.74-48.4,59.8-91.55ZM0,668.93c6.22,28.47,31.36,51.53,63.88,51.53h223.12l-12.96-104.07L0,668.93Z"/>
  </g>
</svg>